<?xml version="1.0" standalone="no"?>
<!DOCTYPE svg PUBLIC "-//W3C//DTD SVG 20010904//EN"
 "http://www.w3.org/TR/2001/REC-SVG-20010904/DTD/svg10.dtd">
<svg version="1.0" xmlns="http://www.w3.org/2000/svg"
 width="252.000000pt" height="200.000000pt" viewBox="0 0 252.000000 200.000000"
 preserveAspectRatio="xMidYMid meet">

<g transform="translate(0.000000,200.000000) scale(0.0500000,-0.0500000)"
fill="#000000" stroke="none">
<path d="M1282 1903 c-1 -54 -4 -115 -8 -135 -5 -36 -5 -38 23 -39 15 0 48 -3
73 -5 40 -4 46 -2 47 15 1 16 -7 21 -48 26 l-51 7 7 77 c3 42 8 93 11 114 6
35 5 37 -23 37 l-29 0 -2 -97z"/>
<path d="M1088 1859 c-28 -100 -34 -135 -25 -141 21 -14 36 -8 39 15 2 18 10
23 41 25 32 3 39 0 44 -17 6 -24 13 -26 37 -8 16 12 13 21 -41 136 l-58 124
-37 -134z m72 -51 c0 -5 -11 -8 -24 -8 -24 0 -24 2 -14 31 l11 32 13 -24 c7
-13 13 -27 14 -31z"/>
<path d="M1487 1974 c-4 -4 -7 -23 -7 -43 0 -20 -9 -74 -20 -120 -16 -67 -18
-86 -8 -93 7 -4 16 -8 19 -8 7 0 29 71 29 94 0 19 4 19 48 7 17 -5 32 -6 32
-1 0 5 3 15 6 24 5 13 -1 16 -29 16 -43 0 -48 6 -41 52 6 31 9 34 35 30 16 -2
29 -8 29 -13 0 -5 11 -9 25 -9 20 0 25 5 25 24 0 20 -6 24 -45 29 -25 4 -55 9
-68 12 -12 3 -26 3 -30 -1z"/>
<path d="M943 1962 c-10 -6 -9 -19 1 -59 13 -49 13 -51 -8 -56 -11 -2 -29 -8
-38 -12 -19 -8 -20 -6 -38 61 -9 37 -13 41 -36 36 -18 -3 -22 -8 -15 -15 6 -6
11 -21 11 -34 0 -13 4 -31 9 -41 5 -9 17 -52 27 -94 13 -59 21 -78 34 -78 22
0 32 11 21 24 -4 6 -11 30 -15 53 -6 42 -6 42 29 49 20 3 38 4 40 2 2 -2 10
-27 17 -55 12 -47 15 -50 37 -42 17 7 21 14 16 27 -8 21 -41 140 -55 200 -11
43 -16 48 -37 34z"/>
<path d="M1777 1768 c-36 -68 -62 -127 -57 -131 7 -8 180 1 180 9 0 2 -9 21
-20 41 -22 42 -20 49 20 58 17 4 30 10 30 13 0 4 -20 35 -44 70 l-44 63 -65
-123z m92 25 c11 -21 9 -23 -13 -23 -24 0 -25 2 -14 25 6 14 12 24 13 23 1 -2
8 -13 14 -25z m-39 -92 c15 -28 13 -31 -20 -31 -34 0 -35 2 -18 30 16 25 25
25 38 1z"/>
<path d="M1620 1830 c0 -5 -2 -15 -5 -22 -4 -11 11 -20 55 -33 53 -16 63 -17
71 -4 14 22 12 24 -56 46 -36 12 -65 17 -65 13z"/>
<path d="M490 1785 c0 -10 34 -66 45 -75 8 -7 15 -19 15 -27 0 -14 45 -109 62
-130 7 -9 14 -9 28 -1 17 11 16 36 -2 49 -5 3 7 39 26 80 19 41 32 75 28 76
-10 4 -202 30 -202 28z m138 -61 c10 -3 9 -11 -4 -36 -16 -30 -17 -31 -30 -13
-8 10 -14 25 -14 32 0 7 -4 13 -10 13 -5 0 -10 4 -10 9 0 7 36 5 68 -5z"/>
<path d="M2005 1755 c-11 -13 -20 -30 -20 -36 0 -7 -11 -25 -25 -40 -47 -51
-90 -103 -90 -110 0 -4 14 -13 30 -21 17 -7 30 -17 30 -23 0 -5 12 -16 27 -23
22 -10 30 -10 41 1 11 12 7 18 -22 41 -43 32 -44 45 -11 76 14 13 36 43 50 66
13 23 31 44 40 48 20 7 19 32 -1 40 -23 9 -27 7 -49 -19z"/>
<path d="M385 1635 c14 -37 25 -71 25 -76 0 -5 -28 5 -62 23 -35 18 -67 35
-71 37 -16 7 33 -78 50 -88 10 -5 15 -12 11 -16 -5 -5 44 -131 57 -143 2 -2
13 1 24 8 21 11 21 11 -9 70 l-30 60 24 -10 c14 -5 43 -20 65 -34 l40 -25 -25
55 c-31 70 -30 80 2 55 15 -12 35 -21 46 -21 11 0 17 -4 14 -9 -3 -5 0 -14 8
-20 10 -8 17 -6 31 9 14 15 15 20 4 20 -8 0 -20 9 -27 20 -7 11 -21 20 -32 20
-11 0 -20 6 -20 13 0 6 -15 22 -33 34 -17 11 -51 35 -75 53 l-43 32 26 -67z"/>
<path d="M760 1614 c0 -49 126 -154 343 -285 45 -27 78 -49 74 -49 -13 0 -84
38 -207 110 -205 120 -260 142 -260 102 0 -47 97 -118 292 -213 135 -66 127
-71 -11 -7 -103 48 -206 88 -226 88 -23 0 -18 -34 8 -57 32 -30 128 -76 235
-113 51 -18 91 -34 89 -36 -1 -2 -67 17 -146 41 -150 47 -191 54 -191 32 0
-37 87 -75 265 -117 130 -31 114 -39 -30 -15 -119 19 -185 20 -185 0 0 -8 10
-19 21 -26 38 -20 170 -38 278 -39 57 0 102 -3 99 -6 -4 -3 -71 -10 -149 -15
-150 -10 -179 -19 -144 -46 16 -12 40 -14 125 -9 58 3 119 8 135 11 68 12 -14
-13 -95 -30 -107 -22 -126 -31 -108 -52 17 -21 92 -11 203 26 111 37 101 28
-32 -29 -58 -25 -106 -49 -106 -55 -5 -27 63 -13 153 30 104 51 104 50 13 -19
-56 -42 -66 -46 -101 -40 -51 8 -127 -8 -212 -46 -84 -37 -171 -40 -257 -10
-107 38 -204 23 -292 -44 -22 -16 -49 -26 -70 -27 l-36 -1 40 -18 c88 -41 237
-45 330 -10 43 17 52 11 22 -15 l-28 -25 43 0 c24 0 68 11 99 24 l57 23 4 -49
c9 -86 85 -180 161 -195 15 -3 30 -9 33 -14 3 -5 -10 -35 -27 -67 -18 -32 -30
-65 -27 -74 4 -9 29 -21 57 -28 53 -12 141 -62 141 -80 0 -5 12 -10 27 -10 21
0 24 -3 15 -12 -21 -21 -13 -47 18 -63 39 -20 39 -21 33 25 -3 22 -3 40 1 40
3 0 29 -17 58 -37 36 -26 60 -37 80 -34 23 2 28 -1 28 -19 0 -26 19 -33 60
-23 l33 9 -122 78 c-94 60 -127 88 -146 120 -29 50 -55 145 -55 203 l0 42 55
-25 c31 -14 93 -32 138 -40 69 -12 85 -19 102 -41 28 -38 95 -153 95 -164 0
-5 -10 -11 -22 -14 -30 -7 -131 -1 -147 9 -7 4 -28 5 -47 1 l-35 -6 25 -20
c26 -21 125 -51 139 -42 4 2 39 10 79 16 90 15 99 27 70 95 -12 28 -22 69 -22
91 l0 41 94 0 c68 0 97 -4 105 -14 15 -17 4 -91 -15 -107 -8 -6 -14 -22 -14
-34 0 -18 -7 -25 -30 -30 -20 -4 -36 -17 -46 -37 -8 -16 -14 -32 -12 -34 10
-9 58 14 98 47 34 29 44 45 50 80 4 24 13 65 20 90 12 42 12 50 -3 73 -13 19
-26 26 -48 26 -31 0 -89 25 -89 38 0 5 5 13 11 19 6 6 13 42 16 80 3 37 12 75
19 84 8 8 23 41 33 72 11 31 32 72 46 91 24 31 30 34 63 29 20 -3 64 -20 97
-38 66 -35 98 -34 110 4 8 25 7 27 -72 122 -35 42 -63 80 -63 83 0 3 9 6 20 6
23 0 46 35 30 45 -6 4 -18 1 -26 -6 -11 -9 -20 -9 -40 0 -14 6 -36 11 -49 11
-13 0 -27 5 -30 10 -9 15 -25 12 -25 -4 0 -22 -118 -29 -152 -8 -15 9 -28 20
-28 24 0 4 -4 8 -10 8 -5 0 -10 -16 -10 -35 0 -33 -2 -35 -25 -29 -37 9 -112
-31 -140 -76 -31 -49 -42 -55 -54 -31 -31 57 13 193 69 212 30 11 34 18 30 54
-4 42 -66 84 -192 129 -55 20 -116 76 -141 129 -10 20 -22 37 -26 37 -13 0
-21 -42 -14 -69 6 -22 4 -22 -18 -11 -13 7 -67 46 -120 86 -127 96 -218 154
-241 154 -13 0 -18 -7 -18 -26z m544 -746 c-25 -44 -78 -98 -96 -98 -17 0 -9
11 38 55 63 57 69 62 58 43z m226 -7 c0 -24 -25 -34 -40 -16 -10 12 -8 17 11
24 13 5 25 10 27 10 1 1 2 -8 2 -18z m-216 -70 c-9 -22 -23 -41 -31 -41 -8 0
-13 3 -11 8 7 17 53 80 56 78 1 -2 -5 -22 -14 -45z m181 13 c17 -12 18 -16 5
-24 -18 -11 -26 -6 -33 20 -6 24 1 25 28 4z m70 6 c-3 -5 -11 -10 -16 -10 -6
0 -7 5 -4 10 3 6 11 10 16 10 6 0 7 -4 4 -10z m-216 -54 c-9 -8 -10 -7 -5 7 3
10 7 26 7 35 1 9 4 6 6 -7 3 -13 -1 -28 -8 -35z m53 29 c3 -14 1 -28 -3 -31
-5 -3 -9 9 -9 25 0 38 6 40 12 6z m-297 -507 c8 -28 13 -54 10 -56 -5 -5 -75
45 -75 54 0 16 32 64 40 59 5 -3 16 -29 25 -57z"/>
<path d="M2152 1633 c-18 -2 -30 -9 -27 -14 4 -5 -11 -9 -33 -9 l-40 0 -1 -96
0 -97 47 6 c27 3 67 13 89 22 l42 17 0 89 c1 99 7 92 -77 82z m38 -86 c0 -40
-5 -57 -20 -69 -12 -11 -22 -13 -26 -7 -3 6 -19 7 -35 4 -27 -6 -29 -5 -29 27
0 52 11 78 31 78 10 0 21 5 24 10 3 6 17 10 31 10 22 0 24 -3 24 -53z"/>
<path d="M130 1444 c0 -5 128 -224 135 -232 2 -2 13 1 24 8 19 10 20 13 7 33
-13 20 -12 25 10 50 19 23 27 26 43 17 27 -14 28 -13 33 15 3 14 4 25 2 25 -1
0 -59 20 -128 45 -69 24 -126 42 -126 39z m150 -104 c0 -4 -6 -13 -14 -19 -12
-10 -18 -7 -30 18 l-16 30 30 -11 c17 -5 30 -13 30 -18z"/>
<path d="M2235 1413 c-4 -21 -10 -51 -15 -68 -4 -16 -11 -45 -14 -64 l-6 -33
90 4 c49 2 92 7 95 10 4 3 7 22 8 42 1 20 5 36 8 36 4 0 11 22 16 49 l10 49
-51 4 c-28 2 -53 0 -57 -4 -3 -4 -21 -3 -39 2 -19 6 -36 10 -37 10 -1 0 -5
-17 -8 -37z m145 -7 c0 -1 -7 -26 -15 -54 -10 -32 -21 -52 -30 -52 -8 0 -15
-5 -15 -12 0 -9 -3 -9 -12 0 -7 7 -22 12 -35 12 -26 0 -29 14 -12 70 11 36 12
37 65 38 30 1 54 0 54 -2z"/>
<path d="M23 1312 c-25 -4 -31 -20 -10 -27 6 -3 13 -18 13 -33 2 -42 44 -144
57 -139 7 2 49 12 95 22 67 15 82 21 82 37 0 28 -24 32 -96 14 -37 -9 -68 -16
-69 -14 -1 2 -13 35 -26 73 -21 61 -27 70 -46 67z"/>
<path d="M2482 1283 c-18 -7 -35 -20 -38 -28 -4 -8 -15 -15 -25 -15 -20 0
-149 -61 -149 -70 0 -3 23 -14 51 -25 28 -11 53 -25 56 -32 3 -6 22 -14 44
-18 21 -4 42 -12 46 -18 7 -12 18 28 29 103 3 19 10 44 16 56 5 12 8 30 6 41
-3 18 -5 19 -36 6z m-17 -80 c-15 -74 -15 -74 -35 -63 -10 5 -28 10 -39 10
-37 0 -31 17 17 43 56 32 61 32 57 10z"/>
</g>
</svg>
